<?xml version="1.0" encoding="UTF-8" standalone="no"?>
<!DOCTYPE svg PUBLIC "-//W3C//DTD SVG 1.1//EN" "http://www.w3.org/Graphics/SVG/1.1/DTD/svg11.dtd">
<svg width="100%" height="100%" viewBox="0 0 1772 1772" version="1.1" xmlns="http://www.w3.org/2000/svg" xmlns:xlink="http://www.w3.org/1999/xlink" xml:space="preserve" xmlns:serif="http://www.serif.com/" style="fill-rule:evenodd;clip-rule:evenodd;stroke-linejoin:round;stroke-miterlimit:2;">
    <g transform="matrix(1,0,0,1,-9568.61,-1956.1)">
        <g transform="matrix(1,0,0,1,9568.61,1956.1)">
            <rect id="symbol-white" serif:id="symbol white" x="0" y="0" width="1771.65" height="1771.65" style="fill:none;"/>
            <clipPath id="_clip1">
                <rect id="symbol-white1" serif:id="symbol white" x="0" y="0" width="1771.65" height="1771.65"/>
            </clipPath>
            <g clip-path="url(#_clip1)">
                <g transform="matrix(1.86227,0,0,1.39937,-113.892,-1245.8)">
                    <g transform="matrix(364.939,0,0,364.939,857.974,1651)">
                    </g>
                    <text x="201.084px" y="1651px" style="font-family:'Gilroy-ExtraBold', 'Gilroy';font-weight:800;font-size:364.939px;fill:white;">D<tspan x="445.593px " y="1651px ">T</tspan>P</text>
                </g>
                <g transform="matrix(1.39917,0,0,1.39917,-10904.7,-119.631)">
                    <path d="M8371.11,85.501L8794.2,163.536L8889.36,347.208L8953.74,471.031L9009.72,908.177L8911.76,1039.07L8445.39,1351.72L8105.53,1162.35L7927.19,1063.07L7843.93,956.193L7854.43,575.328L7972.69,224.347L8371.11,85.501ZM8374.64,131.575L8008.04,259.332L7898.9,583.249L7889.03,941.393L7956.85,1028.46L8127.26,1123.32L8127.27,1123.33L8443.24,1299.38L8880.56,1006.21L8963.11,895.9L8910.44,484.586L8849.73,367.813C8849.72,367.795 8849.71,367.776 8849.7,367.758C8849.7,367.758 8764.59,203.499 8764.59,203.499L8374.64,131.575Z" style="fill:white;"/>
                </g>
            </g>
        </g>
    </g>
</svg>
