<?xml version="1.0" encoding="UTF-8" standalone="no"?>
<!DOCTYPE svg PUBLIC "-//W3C//DTD SVG 1.1//EN" "http://www.w3.org/Graphics/SVG/1.1/DTD/svg11.dtd">
<svg width="100%" height="100%" viewBox="0 0 1772 1772" version="1.1" xmlns="http://www.w3.org/2000/svg" xmlns:xlink="http://www.w3.org/1999/xlink" xml:space="preserve" xmlns:serif="http://www.serif.com/" style="fill-rule:evenodd;clip-rule:evenodd;stroke-linejoin:round;stroke-miterlimit:2;">
    <g transform="matrix(1,0,0,1,0,-1957.62)">
        <g transform="matrix(1,0,0,1,0,1957.62)">
            <rect id="circular" x="0" y="0" width="1771.65" height="1771.65" style="fill:none;"/>
            <g id="circular1" serif:id="circular">
                <g transform="matrix(1,0,0,1,0,-1957.62)">
                    <circle cx="885.827" cy="2843.45" r="885.827" style="fill:white;"/>
                </g>
                <g transform="matrix(0.852361,0,0,0.852361,135.916,148.574)">
                    <g transform="matrix(0.597122,0,0,0.597122,265.4,43.2776)">
                        <g transform="matrix(4.16667,0,0,4.16667,-199.047,-247.595)">
                            <path d="M258.325,83.813L443.95,113.063L444.794,109.688L275.2,78.188L258.325,83.813Z" style="fill:rgb(193,17,13);fill-rule:nonzero;"/>
                            <path d="M233.575,92.813L440.575,128.531L482.482,189.563L483.044,183.938L443.388,118.125L248.763,86.906L233.575,92.813Z" style="fill:rgb(193,17,13);fill-rule:nonzero;"/>
                            <path d="M203.482,103.5L436.638,144.281L508.919,246.656L507.513,234.563L439.169,135L220.919,97.031L203.482,103.5Z" style="fill:rgb(193,17,13);fill-rule:nonzero;"/>
                            <path d="M175.075,113.063L433.263,163.688L512.294,266.906L510.607,254.531L435.513,152.719L190.825,107.719L175.075,113.063Z" style="fill:rgb(193,17,13);fill-rule:nonzero;"/>
                            <path d="M143.857,124.031L430.732,183.375L515.107,289.969L513.982,279.844L432.7,171.844L162.7,117.281L143.857,124.031Z" style="fill:rgb(193,17,13);fill-rule:nonzero;"/>
                            <path d="M114.607,134.156L429.044,207L518.2,311.344L517.357,303.188L429.607,195.188L130.357,129.094L114.607,134.156Z" style="fill:rgb(193,17,13);fill-rule:nonzero;"/>
                            <path d="M104.763,162.844L121.919,154.969L429.044,232.875L521.857,335.531L520.169,324.281L428.763,220.219L119.388,146.25L109.825,148.688L104.763,162.844Z" style="fill:rgb(193,17,13);fill-rule:nonzero;"/>
                            <path d="M94.638,192.094L130.357,180.281L316.263,228.938L434.107,275.344L524.669,357.75L523.263,347.906L431.575,255.938L344.669,223.594L126.982,167.625L99.982,178.031L94.638,192.094Z" style="fill:rgb(193,17,13);fill-rule:nonzero;"/>
                            <path d="M86.482,216.281L137.669,208.125L251.857,241.313L443.669,317.25L528.325,382.219L526.638,370.969L438.888,295.875L284.763,235.125L134.575,194.063L90.7,204.75L86.482,216.281Z" style="fill:rgb(193,17,13);fill-rule:nonzero;"/>
                            <path d="M78.325,240.188L143.575,240.469L186.325,253.688L456.888,360L531.419,405.844L530.294,396L450.7,339.188L218.669,247.5L141.325,225.281L82.544,229.781L78.325,240.188Z" style="fill:rgb(193,17,13);fill-rule:nonzero;"/>
                            <path d="M71.294,261.281L146.388,275.906L471.232,399.375L518.482,423.281L524.107,415.406L464.763,380.531L144.982,258.188L74.388,252L71.294,261.281Z" style="fill:rgb(193,17,13);fill-rule:nonzero;"/>
                            <path d="M67.075,283.781L144.982,311.625L488.107,440.719L502.732,445.219L509.482,435.656L480.513,421.594L146.388,294.75L67.075,275.063L67.075,283.781Z" style="fill:rgb(193,17,13);fill-rule:nonzero;"/>
                            <path d="M66.232,303.75L141.044,345.094L477.138,468.844L492.044,458.438L143.294,328.219L67.075,293.906L66.232,303.75Z" style="fill:rgb(193,17,13);fill-rule:nonzero;"/>
                            <path d="M65.669,325.125L134.294,376.313L447.325,489.563L461.388,479.438L138.794,358.781L66.513,316.594L65.669,325.125Z" style="fill:rgb(193,17,13);fill-rule:nonzero;"/>
                            <path d="M65.107,349.5L125.294,404.063L417.513,508.969L431.294,499.406L129.794,391.969L65.669,339.938L65.107,349.5Z" style="fill:rgb(193,17,13);fill-rule:nonzero;"/>
                            <path d="M64.263,373.125L114.325,431.063L389.107,527.813L402.607,518.531L121.638,418.125L64.825,362.156L64.263,373.125Z" style="fill:rgb(193,17,13);fill-rule:nonzero;"/>
                            <path d="M63.7,396.75L103.638,454.125L359.857,547.5L373.075,538.5L109.263,442.594L63.982,386.063L63.7,396.75Z" style="fill:rgb(193,17,13);fill-rule:nonzero;"/>
                            <path d="M62.857,425.156L96.325,468.188L168.044,508.125L333.982,564.656L346.357,556.219L100.263,463.125L63.419,409.125L62.857,425.156Z" style="fill:rgb(193,17,13);fill-rule:nonzero;"/>
                            <path d="M237.232,546.656L304.45,584.063L319.638,574.5L237.232,546.656Z" style="fill:rgb(193,17,13);fill-rule:nonzero;"/>
                        </g>
                        <g transform="matrix(4.16667,0,0,4.16667,-199.047,-247.595)">
                            <path d="M258.325,80.813L443.95,110.063L444.794,106.688L275.2,75.188L258.325,80.813Z" style="fill:rgb(41,141,143);fill-rule:nonzero;"/>
                            <path d="M233.575,89.813L440.575,125.531L482.482,186.563L483.044,180.938L443.388,115.125L248.763,83.906L233.575,89.813Z" style="fill:rgb(41,141,143);fill-rule:nonzero;"/>
                            <path d="M203.482,100.5L436.638,141.281L508.919,243.656L507.513,231.563L439.169,132L220.919,94.031L203.482,100.5Z" style="fill:rgb(41,141,143);fill-rule:nonzero;"/>
                            <path d="M175.075,110.063L433.263,160.688L512.294,263.906L510.607,251.531L435.513,149.719L190.825,104.719L175.075,110.063Z" style="fill:rgb(41,141,143);fill-rule:nonzero;"/>
                            <path d="M143.857,121.031L430.732,180.375L515.107,286.969L513.982,276.844L432.7,168.844L162.7,114.281L143.857,121.031Z" style="fill:rgb(41,141,143);fill-rule:nonzero;"/>
                            <path d="M114.607,131.156L429.044,204L518.2,308.344L517.357,300.188L429.607,192.188L130.357,126.094L114.607,131.156Z" style="fill:rgb(41,141,143);fill-rule:nonzero;"/>
                            <path d="M104.763,159.844L121.919,151.969L429.044,229.875L521.857,332.531L520.169,321.281L428.763,217.219L119.388,143.25L109.825,145.688L104.763,159.844Z" style="fill:rgb(41,141,143);fill-rule:nonzero;"/>
                            <path d="M94.638,189.094L130.357,177.281L316.263,225.938L434.107,272.344L524.669,354.75L523.263,344.906L431.575,252.938L344.669,220.594L126.982,164.625L99.982,175.031L94.638,189.094Z" style="fill:rgb(41,141,143);fill-rule:nonzero;"/>
                            <path d="M86.482,213.281L137.669,205.125L251.857,238.313L443.669,314.25L528.325,379.219L526.638,367.969L438.888,292.875L284.763,232.125L134.575,191.063L90.7,201.75L86.482,213.281Z" style="fill:rgb(41,141,143);fill-rule:nonzero;"/>
                            <path d="M78.325,237.188L143.575,237.469L186.325,250.688L456.888,357L531.419,402.844L530.294,393L450.7,336.188L218.669,244.5L141.325,222.281L82.544,226.781L78.325,237.188Z" style="fill:rgb(41,141,143);fill-rule:nonzero;"/>
                            <path d="M71.294,258.281L146.388,272.906L471.232,396.375L518.482,420.281L524.107,412.406L464.763,377.531L144.982,255.188L74.388,249L71.294,258.281Z" style="fill:rgb(41,141,143);fill-rule:nonzero;"/>
                            <path d="M67.075,280.781L144.982,308.625L488.107,437.719L502.732,442.219L509.482,432.656L480.513,418.594L146.388,291.75L67.075,272.063L67.075,280.781Z" style="fill:rgb(41,141,143);fill-rule:nonzero;"/>
                            <path d="M66.232,300.75L141.044,342.094L477.138,465.844L492.044,455.438L143.294,325.219L67.075,290.906L66.232,300.75Z" style="fill:rgb(41,141,143);fill-rule:nonzero;"/>
                            <path d="M65.669,322.125L134.294,373.313L447.325,486.563L461.388,476.438L138.794,355.781L66.513,313.594L65.669,322.125Z" style="fill:rgb(41,141,143);fill-rule:nonzero;"/>
                            <path d="M65.107,346.5L125.294,401.063L417.513,505.969L431.294,496.406L129.794,388.969L65.669,336.938L65.107,346.5Z" style="fill:rgb(41,141,143);fill-rule:nonzero;"/>
                            <path d="M64.263,370.125L114.325,428.063L389.107,524.813L402.607,515.531L121.638,415.125L64.825,359.156L64.263,370.125Z" style="fill:rgb(41,141,143);fill-rule:nonzero;"/>
                            <path d="M63.7,393.75L103.638,451.125L359.857,544.5L373.075,535.5L109.263,439.594L63.982,383.063L63.7,393.75Z" style="fill:rgb(41,141,143);fill-rule:nonzero;"/>
                            <path d="M62.857,422.156L96.325,465.188L168.044,505.125L333.982,561.656L346.357,553.219L100.263,460.125L63.419,406.125L62.857,422.156Z" style="fill:rgb(41,141,143);fill-rule:nonzero;"/>
                            <path d="M237.232,543.656L304.45,581.063L319.638,571.5L237.232,543.656Z" style="fill:rgb(41,141,143);fill-rule:nonzero;"/>
                        </g>
                    </g>
                    <g transform="matrix(1.33099,0,0,1.00015,13.5346,-8.9504)">
                        <g transform="matrix(364.939,0,0,364.939,1095.18,1651)">
                        </g>
                        <text x="201.084px" y="1651px" style="font-family:'Gilroy-ExtraBold', 'Gilroy';font-weight:800;font-size:364.939px;fill:rgb(140,140,140);">3D60</text>
                    </g>
                </g>
            </g>
        </g>
    </g>
</svg>
